<svg width="58" height="63" viewBox="0 0 58 63" fill="none" xmlns="http://www.w3.org/2000/svg">
<g clip-path="url(#clip0_1410_2475)">
<path d="M57.1308 5.37159L57.0366 4.82227L56.497 4.96525C50.9147 6.44411 36.2658 6.12993 29.3293 0.277869L29 0L28.6706 0.277869C21.7341 6.12998 7.08516 6.44411 1.50296 4.96525L0.963338 4.82227L0.869165 5.37159C-0.390835 12.7222 -0.906129 23.9428 3.79447 35.6542C5.9504 41.0257 9.01779 45.9748 12.9114 50.3641C17.1871 55.1842 22.5165 59.3889 28.7513 62.8615L29 63L29.2486 62.8615C35.4835 59.3889 40.8129 55.1842 45.0886 50.3641C48.9823 45.9748 52.0496 41.0257 54.2055 35.6542C58.9061 23.9428 58.3908 12.7222 57.1308 5.37159ZM1.78519 6.08319C5.13759 6.84522 10.2277 6.95032 14.9819 6.33971C20.9185 5.57722 25.8726 3.80201 29 1.3249C32.1274 3.80201 37.0814 5.57722 43.0181 6.33971C47.7724 6.95028 52.8624 6.84522 56.2147 6.08319C56.6301 8.65722 56.9877 12.0089 56.9681 15.8486C55.7673 16.0206 52.151 16.4678 47.6218 16.3664C42.5142 16.2525 35.1819 15.3974 29.2558 11.9701L29 11.8222L28.7442 11.9701C22.8241 15.3939 15.5006 16.2504 10.3994 16.3659C5.86579 16.4687 2.23558 16.0205 1.03187 15.8484C1.01223 12.0088 1.36983 8.65718 1.78519 6.08319ZM46.3898 17.3443C45.0565 31.8365 39.52 41.8609 29 48.8308C18.48 41.8609 12.9435 31.8365 11.6102 17.3443C16.6669 17.1244 23.3933 16.1527 29 12.9973C34.6068 16.1527 41.3331 17.1244 46.3898 17.3443ZM29 61.833C6.40085 49.1287 1.35022 30.2968 1.04597 16.8788C2.42447 17.0691 5.99615 17.4829 10.4009 17.3846C10.4627 17.3832 10.5262 17.3812 10.5886 17.3796C11.1919 24.0068 12.632 29.6068 14.9871 34.4844C16.427 37.4665 18.2426 40.2248 20.3835 42.6826C22.722 45.3673 25.5272 47.7845 28.7209 49.867L29 50.0489L29.279 49.867C32.4728 47.7845 35.2779 45.3673 37.6165 42.6826C39.7574 40.2248 41.573 37.4665 43.0129 34.4844C45.368 29.6068 46.8081 24.0068 47.4114 17.3796C47.4737 17.3812 47.5373 17.3832 47.5991 17.3846C48.0557 17.3948 48.5027 17.3995 48.9399 17.3995C52.7206 17.3995 55.7184 17.0493 56.954 16.8788C56.6498 30.2968 51.5992 49.1287 29 61.833Z" fill="#334155"/>
<path d="M20.5718 31.6738C19.1608 30.0644 18.7198 28.5807 18.7198 28.5807C27.8661 22.7716 23.482 16.8905 14.449 19.0372C15.7341 31.787 20.4584 36.5022 20.4584 36.5022C22.4867 35.3705 21.9828 33.2833 20.5718 31.6738ZM16.4899 20.3574C21.1261 19.7539 23.9229 22.5704 17.8758 25.739C17.8758 25.739 16.6663 23.8781 16.4899 20.3574Z" fill="#334155"/>
<path d="M21.63 39.0421L23.6458 41.2551C25.0438 39.4628 26.0496 36.417 26.7696 33.1486H31.4449C32.5695 39.1689 34.2535 41.2551 34.2535 41.2551L36.4078 39.0295C33.5354 32.8432 32.137 22.168 32.4771 16.8905C29.7559 16.5167 26.9591 16.8905 26.9591 16.8905C25.8252 29.6437 24.0741 33.1324 21.63 39.0421ZM30.474 19.1126C30.3934 23.6676 30.6244 27.3671 31.0065 30.3443L31.0063 30.3438C31.0063 30.3438 29.3205 31.0759 27.3146 30.3438C27.3146 30.3439 27.3145 30.3439 27.3145 30.3439C28.2929 24.6253 28.5087 19.1126 28.5087 19.1126H30.474Z" fill="#334155"/>
<path d="M42.921 26.9461C42.6943 26.5437 40.7541 25.9653 40.1998 27.8262C39.7557 29.3173 39.1498 31.3088 38.9265 32.0415C38.8746 32.2119 38.7174 32.3277 38.539 32.3277C38.3338 32.3277 38.1619 32.1747 38.1364 31.9715C37.4123 26.1998 38.8392 18.8737 38.8392 18.8737L36.244 18.0187C36.244 18.0187 34.0771 29.2094 37.8566 36.5022C37.8566 36.5022 41.7368 31.7462 42.921 26.9461Z" fill="#334155"/>
<path d="M27.827 43.0951H27.8227L27.1727 42.0522H26.8324V43.6066H27.153V42.566H27.1574L27.8052 43.6066H28.1477V42.0522H27.827V43.0951Z" fill="#334155"/>
<path d="M29.0286 42.6662L28.6643 42.0522H28.2782L28.8519 43.0014V43.6066H29.1943V43.0101L29.7724 42.0522H29.3907L29.0286 42.6662Z" fill="#334155"/>
<path d="M30.6009 43.3562C30.2934 43.3562 30.1778 43.0951 30.1778 42.836C30.1778 42.5639 30.2934 42.3026 30.6009 42.3026C30.7711 42.3026 30.9194 42.4202 30.9412 42.5747H31.2728C31.2313 42.2155 30.9434 42.0153 30.6009 42.0153C30.1189 42.0153 29.8353 42.3745 29.8353 42.836C29.8353 43.2845 30.1189 43.6437 30.6009 43.6437C30.9827 43.6437 31.2509 43.3955 31.2859 43.008H30.9543C30.9281 43.2126 30.8104 43.3562 30.6009 43.3562Z" fill="#334155"/>
<path d="M8.87473 21.4429L2.9263 20.0719L3.09833 21.3287L4.41829 21.5997L4.70724 23.7103L3.50633 24.309L3.68272 25.5975L9.04896 22.7156L8.87473 21.4429ZM5.58955 23.2599L5.38937 21.7975L7.56515 22.2496L7.56731 22.2654L5.58955 23.2599Z" fill="#334155"/>
<path d="M9.39563 29.301L10.4202 29.049L9.30133 24.517L8.27672 24.769L8.68605 26.4268L4.16849 27.5378L4.46878 28.7541L8.98634 27.6431L9.39563 29.301Z" fill="#334155"/>
<path d="M11.9369 33.1174L9.8943 33.9069L9.05995 31.7567L11.1025 30.9672L10.6492 29.7991L5.32666 31.8565L5.77992 33.0246L8.07595 32.1371L8.9103 34.2872L6.61431 35.1748L7.06757 36.3428L12.3901 34.2855L11.9369 33.1174Z" fill="#334155"/>
<path d="M9.45689 38.7011L13.5402 36.4753L12.9386 35.3759L7.9292 38.1065L9.86423 41.6427L10.7903 41.1379L9.45689 38.7011Z" fill="#334155"/>
<path d="M15.0412 44.7862L15.8337 44.2188L14.2214 41.9757L15.2153 41.2642L16.9719 43.7083L17.8293 43.0944L15.3411 39.6324L10.7032 42.9529L13.2287 46.4668L14.0861 45.8529L12.2922 43.3569L13.429 42.5431L15.0412 44.7862Z" fill="#334155"/>
<path d="M20.606 47.7372L21.3838 47.0256L18.2237 43.5853L17.4459 44.2969L18.6019 45.5554L15.1726 48.6931L16.0207 49.6165L19.45 46.4787L20.606 47.7372Z" fill="#334155"/>
<path d="M22.1289 47.6642L18.2674 51.8586L19.1915 52.706L23.053 48.5117L22.1289 47.6642Z" fill="#334155"/>
<path d="M26.1944 50.9182C24.7921 49.846 23.1653 50.2602 22.1348 51.6028C21.1335 52.9074 21.1563 54.583 22.5586 55.6552C23.669 56.5041 25.0036 56.3789 25.9703 55.3293L25.0059 54.5918C24.4728 55.1289 23.8094 55.2849 23.2002 54.8192C22.3056 54.1351 22.5525 53.1181 23.131 52.3645C23.7386 51.5729 24.6582 51.07 25.5528 51.7541C26.0477 52.1325 26.2167 52.8044 25.9351 53.3025L26.8995 54.0399C27.581 52.9028 27.1906 51.6798 26.1944 50.9182Z" fill="#334155"/>
<path d="M36.9953 52.8865L33.9474 49.3787L32.9993 50.1992L36.7385 54.5027L39.7882 51.8631L39.0968 51.0675L36.9953 52.8865Z" fill="#334155"/>
<path d="M41.2178 48.8902L40.1833 47.9504L42.0451 45.9089L41.3239 45.2537L39.4621 47.2952L38.5576 46.4735L40.5862 44.2491L39.8059 43.5402L36.9324 46.6909L41.1534 50.5255L44.0699 47.3276L43.2895 46.6186L41.2178 48.8902Z" fill="#334155"/>
<path d="M41.5467 41.1879L45.0118 46.2042L45.7341 45.1605L44.9427 44.072L46.1557 42.3192L47.4468 42.6856L48.1873 41.6155L42.278 40.1311L41.5467 41.1879ZM43.0677 41.4608L45.1998 42.0579L44.3594 43.2723L43.0586 41.4739L43.0677 41.4608Z" fill="#334155"/>
<path d="M47.4483 36.3719L48.2878 36.7835L48.8446 35.6519C49.5233 36.0646 49.71 36.6806 49.3505 37.4111C48.8536 38.4209 47.8058 38.3784 46.9518 37.9598C46.0549 37.5201 45.3806 36.7185 45.8776 35.7087C46.1383 35.1787 46.6405 34.9004 47.2708 35.0494L47.7994 33.9751C46.577 33.527 45.4449 34.1988 44.9304 35.2444C44.1516 36.8271 44.8774 38.3385 46.3986 39.0842C47.8768 39.8088 49.5188 39.4581 50.2977 37.8754C50.5409 37.3812 50.6009 36.7706 50.2853 36.127L50.9229 36.2973L51.2753 35.5811L48.5055 34.2234L47.4483 36.3719Z" fill="#334155"/>
<path d="M51.5013 28.2205L48.1165 27.155L47.7391 28.3495L51.1238 29.415C51.9319 29.6694 52.2189 30.0609 51.9496 30.913C51.6442 31.8793 51.0092 31.8466 50.4145 31.6595L47.0298 30.594L46.6523 31.7885L50.037 32.854C51.5159 33.3196 52.4942 32.6906 52.9558 31.2298C53.4151 29.7765 52.9726 28.6836 51.5013 28.2205Z" fill="#334155"/>
<path d="M53.7689 22.1856L53.2463 25.2126L51.8677 24.9756L52.3374 22.2552L51.3763 22.09L50.9067 24.8103L49.7014 24.603L50.2131 21.6389L49.1733 21.4602L48.4485 25.6586L54.0731 26.6258L54.8087 22.3645L53.7689 22.1856Z" fill="#334155"/>
<path d="M10.2335 12.0503H11.5524C12.9752 12.0503 13.5267 11.1488 13.5267 10.2234C13.5267 9.29801 12.9752 8.39652 11.5524 8.39652H8.97864V14.0925H10.2335V12.0503ZM10.2335 9.36979H11.2087C11.7922 9.36979 12.3117 9.49743 12.3117 10.2234C12.3117 10.9494 11.7922 11.077 11.2087 11.077H10.2335V9.36979Z" fill="#334155"/>
<path d="M18.8434 13.2725C20.6099 13.2725 21.649 11.9562 21.649 10.3128C21.649 8.62159 20.6099 7.30527 18.8434 7.30527C17.0769 7.30527 16.0378 8.62159 16.0378 10.3128C16.0378 11.9562 17.0769 13.2725 18.8434 13.2725ZM18.8434 8.35831C19.9704 8.35831 20.394 9.31562 20.394 10.3128C20.394 11.2621 19.9704 12.2195 18.8434 12.2195C17.7164 12.2195 17.2927 11.2621 17.2927 10.3128C17.2927 9.31562 17.7164 8.35831 18.8434 8.35831Z" fill="#334155"/>
<path d="M39.5045 13.021C40.9033 13.021 41.8864 12.1116 42.0143 10.6915H40.7993C40.7034 11.4415 40.2718 11.9679 39.5045 11.9679C38.3775 11.9679 37.9538 11.0106 37.9538 10.0613C37.9538 9.06411 38.3775 8.1068 39.5045 8.1068C40.1279 8.1068 40.6715 8.53763 40.7514 9.10402H41.9664C41.8145 7.78769 40.7594 7.05376 39.5045 7.05376C37.7381 7.05376 36.6989 8.37008 36.6989 10.0613C36.6989 11.7047 37.7381 13.021 39.5045 13.021Z" fill="#334155"/>
<path d="M33.2506 5.30338H31.9956V10.9994H33.2506V5.30338Z" fill="#334155"/>
<path d="M28.4542 8.97493L25.6726 9.59422V5.31274H24.4178V11.0087L28.4542 10.028V8.97493Z" fill="#334155"/>
<path d="M49.3316 12.9798H46.2543V11.5837H49.0199V10.6104H46.2543V9.38985H49.2677V8.33681H44.9994V14.0328H49.3316V12.9798Z" fill="#334155"/>
</g>
<defs>
<clipPath id="clip0_1410_2475">
<rect width="58" height="63" fill="white"/>
</clipPath>
</defs>
</svg>
